<?xml version="1.0" standalone="no"?>
<!DOCTYPE svg PUBLIC "-//W3C//DTD SVG 20010904//EN"
 "http://www.w3.org/TR/2001/REC-SVG-20010904/DTD/svg10.dtd">
<svg version="1.0" xmlns="http://www.w3.org/2000/svg"
 width="160.000000pt" height="160.000000pt" viewBox="0 0 160.000000 160.000000"
 preserveAspectRatio="xMidYMid meet">
<metadata>
Created by potrace 1.11, written by Peter Selinger 2001-2013
</metadata>
<g transform="translate(0.000000,160.000000) scale(0.100000,-0.100000)"
fill="#000000" stroke="none">
<path d="M706 1393 c-3 -4 -17 -8 -29 -10 -30 -4 -79 -25 -73 -30 3 -3 -8 -16
-25 -30 -16 -14 -27 -28 -24 -33 3 -4 -2 -11 -11 -14 -8 -3 -12 -10 -9 -16 3
-5 1 -10 -4 -10 -6 0 -11 -7 -11 -16 0 -8 -4 -12 -10 -9 -6 3 -7 -1 -4 -9 3
-9 1 -16 -6 -16 -6 0 -8 -5 -5 -10 4 -6 1 -18 -6 -26 -6 -8 -13 -22 -14 -32
-1 -9 -7 -30 -15 -47 -15 -34 -21 -60 -20 -92 0 -13 -5 -23 -10 -23 -15 0 -12
-152 4 -172 7 -10 16 -15 19 -11 4 3 7 0 7 -9 0 -18 38 -39 63 -35 9 2 23 9
30 17 9 10 9 11 0 6 -8 -4 -13 -1 -13 8 0 8 -10 22 -22 30 -12 9 -18 16 -13
16 6 0 4 4 -3 8 -7 5 -15 18 -17 30 -3 12 -7 31 -9 42 -3 11 -1 20 3 20 4 0 5
14 3 31 -4 25 -2 30 9 24 12 -8 12 -6 0 8 -7 9 -9 17 -4 17 5 0 10 12 11 28 1
15 7 29 12 30 6 2 10 21 10 42 0 25 5 40 16 44 8 3 12 10 9 16 -3 5 -1 10 5
10 7 0 10 7 6 15 -3 8 0 15 6 15 6 0 9 3 5 6 -6 6 9 26 60 78 31 33 76 45 89
24 4 -6 10 -5 15 3 6 10 9 11 9 2 0 -7 7 -13 15 -13 8 0 24 -15 35 -32 11 -18
20 -28 21 -23 0 11 16 -24 17 -38 0 -5 9 -15 19 -23 11 -8 13 -13 5 -14 -8 0
-6 -8 8 -22 11 -12 20 -29 20 -38 0 -9 6 -22 13 -29 10 -11 9 -12 -3 -6 -12 7
-13 6 -3 -7 7 -8 10 -18 6 -21 -3 -4 -1 -7 6 -7 7 0 9 -5 6 -10 -4 -6 -1 -18
7 -27 11 -14 11 -16 -2 -8 -13 8 -13 6 -1 -8 7 -9 13 -32 13 -52 0 -19 4 -33
8 -30 5 3 8 -13 6 -35 -2 -22 1 -43 6 -46 5 -3 4 -12 -3 -20 -9 -11 -8 -14 2
-14 8 -1 -4 -7 -26 -15 -47 -17 -56 -18 -35 -5 9 6 10 10 3 10 -6 0 -14 -4
-17 -8 -3 -5 -19 -9 -36 -10 -16 0 -35 -4 -42 -9 -14 -8 -19 -10 -44 -12 -8 0
-13 -5 -9 -10 3 -6 -3 -8 -14 -6 -11 2 -25 -3 -31 -11 -7 -7 -16 -11 -21 -8
-5 3 -9 -1 -9 -8 -1 -7 -15 -22 -33 -34 -18 -11 -31 -26 -29 -32 1 -7 -1 -11
-5 -10 -5 2 -10 -1 -12 -7 -2 -5 -10 -25 -18 -43 -7 -17 -10 -32 -7 -32 4 0 0
-8 -7 -17 -10 -11 -10 -14 -1 -9 6 4 12 3 12 -1 0 -5 -6 -15 -12 -22 -10 -11
-10 -13 0 -7 6 4 12 2 12 -3 0 -6 -6 -11 -12 -11 -10 0 -9 -3 1 -9 7 -5 11
-15 9 -22 -3 -8 2 -23 11 -33 9 -11 11 -17 5 -13 -6 3 -11 0 -11 -8 0 -8 4
-12 9 -9 4 3 8 -2 8 -11 0 -24 39 -105 50 -105 6 0 10 -6 10 -13 0 -14 15 -28
69 -67 19 -13 31 -17 26 -9 -6 11 -5 12 6 2 14 -14 79 -18 79 -5 0 4 9 8 21 9
19 2 78 53 61 53 -4 0 -2 4 3 8 12 8 39 64 37 75 -1 4 2 7 6 7 9 0 12 17 12
58 0 12 5 22 11 22 7 0 7 6 -2 17 -10 11 -10 14 -1 9 8 -5 12 0 12 13 0 12 6
21 13 21 8 0 7 4 -3 11 -12 8 -12 12 -2 16 10 4 10 8 2 18 -8 10 -8 19 0 35 6
11 8 25 5 30 -3 6 -3 10 2 10 4 0 7 29 6 65 -2 61 0 67 21 75 13 5 35 7 50 6
14 -2 26 0 26 5 0 4 8 6 18 5 9 -2 27 0 40 5 18 7 23 15 20 36 -2 19 -8 27
-18 24 -8 -2 -27 -4 -42 -5 -14 0 -25 -3 -23 -7 2 -3 -14 -5 -36 -6 -21 0 -36
3 -33 8 3 5 -1 6 -9 3 -11 -4 -16 5 -19 33 -3 21 0 41 6 45 6 4 4 10 -8 14
-14 5 -15 9 -4 15 10 7 10 9 1 9 -7 0 -13 12 -13 28 0 15 -6 34 -12 41 -11 11
-10 12 1 6 10 -6 12 -4 5 6 -9 15 -13 32 -17 66 -1 11 -5 19 -9 16 -5 -2 -8 7
-8 20 0 14 -7 37 -14 53 -8 15 -12 32 -9 37 3 6 1 7 -5 3 -7 -4 -12 -1 -12 7
0 21 -26 68 -33 60 -4 -3 -7 3 -7 14 0 23 -23 46 -35 35 -5 -4 -5 -2 -2 4 8
14 -26 47 -37 37 -4 -5 -6 -1 -4 7 2 8 -2 14 -9 15 -6 0 -15 3 -19 8 -4 4 -16
7 -26 7 -11 0 -16 5 -13 10 7 11 2 13 -9 3z m134 -683 c-8 -5 -10 -10 -4 -10
6 0 14 3 18 7 4 5 25 9 47 10 28 1 39 -3 39 -13 0 -9 4 -13 8 -10 4 2 8 -4 8
-14 0 -10 -4 -16 -8 -14 -4 3 -8 -4 -8 -15 0 -12 6 -21 13 -21 8 0 8 -3 -2 -9
-9 -6 -15 -28 -15 -58 -1 -26 -5 -54 -9 -60 -5 -8 -3 -13 5 -14 10 0 11 -2 0
-6 -10 -4 -10 -8 0 -21 10 -12 10 -14 1 -8 -9 5 -13 -1 -15 -21 -2 -42 -3 -46
-16 -71 -7 -12 -11 -26 -8 -31 3 -5 -1 -14 -9 -21 -8 -7 -12 -16 -9 -21 3 -5
1 -9 -4 -9 -5 0 -14 -12 -20 -26 -7 -14 -17 -22 -22 -19 -6 3 -10 1 -10 -6 0
-7 -3 -9 -7 -6 -3 4 -11 2 -18 -3 -23 -19 -124 28 -109 52 3 4 0 7 -7 6 -7 -2
-14 3 -15 10 -1 6 -2 17 -3 23 0 5 -6 7 -13 3 -7 -5 -9 -2 -5 9 3 8 -1 21 -8
27 -8 7 -12 16 -9 21 3 5 0 19 -7 31 -14 27 -23 150 -9 128 6 -9 10 -10 10 -3
0 6 -5 15 -11 19 -8 5 -6 10 5 16 9 5 14 13 12 17 -9 13 77 94 88 84 3 -4 6
-1 6 6 0 7 5 9 10 6 6 -3 10 -2 10 4 0 6 7 7 17 4 10 -4 14 -2 10 4 -4 7 0 10
10 9 10 -2 27 3 38 10 11 8 24 14 30 14 5 0 3 -5 -5 -10z"/>
</g>
</svg>
